<svg width="1920" height="5485" viewBox="0 0 1920 5485" fill="none" xmlns="http://www.w3.org/2000/svg">
    <path d="M0.0737 720.009L1920.07 0L1920.07 7119.5H0.065918L0.0737 720.009Z" fill="#290076"/>
    <path d="M0.0737 720.009L1920.07 0L1920.07 7119.5H0.065918L0.0737 720.009Z" fill="white" fill-opacity="0.1"/>
    <g opacity="0.6">
        <path d="M1920 947.009L0.00378418 227V7039H1920L1920 947.009Z" fill="#290076"/>
        <path d="M1920 947.009L0.00378418 227V7039H1920L1920 947.009Z" fill="white" fill-opacity="0.1"/>
    </g>
    <g opacity="0.6">
        <path d="M1920 2314.01L0.00012207 1594L0.00964355 7430.5H1920.01L1920 2314.01Z" fill="#290076"/>
        <path d="M1920 2314.01L0.00012207 1594L0.00964355 7430.5H1920.01L1920 2314.01Z" fill="black" fill-opacity="0.15"/>
    </g>
    <path opacity="0.6" d="M0.0828552 2149.01L1920.08 1429L1920.07 7419H0.065918L0.0828552 2149.01Z" fill="#290076"/>
    <g opacity="0.6">
        <path d="M1920 3494.01L0.00012207 2774L0.00964355 8610.5H1920.01L1920 3494.01Z" fill="#290076"/>
        <path d="M1920 3494.01L0.00012207 2774L0.00964355 8610.5H1920.01L1920 3494.01Z" fill="black" fill-opacity="0.15"/>
    </g>
    <path opacity="0.6" d="M0.0828552 3329.01L1920.08 2609L1920.07 8599H0.065918L0.0828552 3329.01Z" fill="#290076"/>
    <path d="M0.0737 3265.01L1920.07 2545L1920.07 9664.5H0.065918L0.0737 3265.01Z" fill="#290076"/>
    <path d="M0.0737 3265.01L1920.07 2545L1920.07 9664.5H0.065918L0.0737 3265.01Z" fill="white" fill-opacity="0.1"/>
    <g opacity="0.6">
        <path d="M1920 3495.01L-0.00012207 2775V9587H1920L1920 3495.01Z" fill="#290076"/>
        <path d="M1920 3495.01L-0.00012207 2775V9587H1920L1920 3495.01Z" fill="white" fill-opacity="0.1"/>
    </g>
    <g opacity="0.6">
        <path d="M0.0838623 4878.01L1920.08 4158L1920.07 9994.5H0.0743408L0.0838623 4878.01Z" fill="#290076"/>
        <path d="M0.0838623 4878.01L1920.08 4158L1920.07 9994.5H0.0743408L0.0838623 4878.01Z" fill="black" fill-opacity="0.15"/>
    </g>
    <path opacity="0.6" d="M1920 4713.01L-0.00012207 3993L0.0179443 9983H1920.02L1920 4713.01Z" fill="#290076"/>
</svg>
